<svg width="20" height="20" viewBox="0 0 20 20" fill="none" xmlns="http://www.w3.org/2000/svg">
<path d="M6.82877 10.6355C6.8287 10.6354 6.82863 10.6353 6.82856 10.6352C6.82776 10.6342 6.82542 10.631 6.82285 10.6273L0.291337 1.42643C0.291244 1.4263 0.291152 1.42617 0.291059 1.42605C0.0722813 1.12146 0.042229 0.719909 0.213676 0.38633L6.82877 10.6355ZM6.82877 10.6355L6.82871 10.6356L6.83186 10.6398C7.05006 10.9344 7.16806 11.2911 7.16884 11.658C7.16884 11.6581 7.16884 11.6582 7.16884 11.6583L7.16884 19.1601V19.1605H7.31884M6.82877 10.6355L12.2017 18.6762M7.31884 19.1605C7.31745 19.3828 7.4047 19.5962 7.56135 19.7538C7.718 19.9115 7.93096 19.9999 8.15305 19.9999C8.26608 19.9999 8.37771 19.9773 8.48202 19.9341M7.31884 19.1605V11.658V19.1605ZM8.48202 19.9341L8.53546 20.0742L8.53742 20.0735C8.5381 20.0732 8.53877 20.0729 8.53945 20.0727L8.48202 19.9341ZM8.48202 19.9341L12.1528 18.5343M12.1528 18.5343L12.1966 18.6778C12.1983 18.6773 12.2 18.6768 12.2017 18.6762M12.1528 18.5343C12.4818 18.434 12.7001 18.1237 12.7001 17.7499V11.658L12.2017 18.6762M12.1528 18.5343L12.2062 18.6745L12.2017 18.6762M18.9245 -0.149999C19.2955 -0.150645 19.6354 0.0564906 19.8048 0.38633L18.9245 -0.149999ZM18.9245 -0.149999H18.9247V0L18.9244 -0.149998C18.9244 -0.149998 18.9245 -0.149998 18.9245 -0.149999ZM18.9245 -0.149999H1.0938M18.9245 -0.149999H1.0938M1.0938 -0.149999C0.723023 -0.150645 0.383157 0.056501 0.213685 0.386312L1.0938 -0.149999ZM7.89209 9.86119L1.71901 1.16526H18.2995L12.127 9.86011C12.1268 9.86047 12.1265 9.86082 12.1262 9.86118C11.7429 10.3818 11.5357 11.0111 11.5344 11.6577V11.658V17.5232L8.48409 18.6862L8.48409 11.658L8.48409 11.6577C8.48284 11.0111 8.27559 10.3818 7.89209 9.86119Z" fill="#5653C2" stroke="#5653C2" stroke-width="0.3"/>
</svg>
